<svg width="32" height="22" viewBox="0 0 32 22" fill="none" xmlns="http://www.w3.org/2000/svg">
<path fill-rule="evenodd" clip-rule="evenodd" d="M0 1C0 0.447715 0.447715 0 1 0H15C15.5523 0 16 0.447715 16 1C16 1.55228 15.5523 2 15 2H1C0.447715 2 0 1.55228 0 1ZM0 11C0 10.4477 0.447715 10 1 10H31C31.5523 10 32 10.4477 32 11C32 11.5523 31.5523 12 31 12H1C0.447715 12 0 11.5523 0 11ZM1 20C0.447715 20 0 20.4477 0 21C0 21.5523 0.447716 22 1 22H23C23.5523 22 24 21.5523 24 21C24 20.4477 23.5523 20 23 20H1Z" fill="#464D53"/>
</svg>
