<svg width="699" height="309" viewBox="0 0 699 309" fill="none" xmlns="http://www.w3.org/2000/svg">
<g style="mix-blend-mode:lighten" opacity="0.75">
<path d="M415.32 0L-72.2731 0.286167C-72.9224 0 -75.0113 66.2777 -77.5236 66.2777C-80.5441 66.2777 -83 68.7336 -83 71.7541C-83 74.7745 -80.5441 77.2304 -77.5236 77.2304C-75.0113 77.2304 -72.8942 75.5085 -72.2731 73.222H247.642L317.282 3.58187H414.106L458.058 47.5339H687.077C687.727 49.8486 689.816 51.5423 692.328 51.5423C695.348 51.5423 697.804 49.0864 697.804 46.066C697.804 43.0455 695.348 40.5896 692.328 40.5896C689.816 40.5896 687.698 42.2833 687.077 44.5981H459.272L415.32 0Z" fill="url(#paint0_linear_198_244)"/>
<path d="M687.319 115.706C687.968 118.021 690.057 119.715 692.569 119.715C695.59 119.715 698.046 117.259 698.046 114.238C698.046 111.218 695.59 108.762 692.569 108.762C690.057 108.762 687.968 110.484 687.319 112.77L-29.5 112.77L-51.2414 114.343C-49.1525 115.529 -46.4707 115.247 -44.6923 113.468C-42.5469 111.323 -42.5469 107.851 -44.6923 105.734C-46.8377 103.588 -50.3098 103.588 -52.427 105.734C-54.2054 107.512 -54.4877 110.194 -53.3021 112.283L-97 155.981H164.827L206.351 114.456L687.319 115.706Z" fill="url(#paint1_linear_198_244)"/>
<path d="M692.404 231.38C689.892 231.38 687.775 233.102 687.154 235.389H539.744L495.227 279.905L-158.273 279.91C-158.922 267.595 -161.011 297.068 -163.524 297.068C-166.544 297.068 -169 299.524 -169 302.545C-169 305.565 -166.544 308.021 -163.524 308.021C-161.011 308.021 -158.894 306.299 -158.273 304.012H17.1616L37.9901 282.841H496.469L540.986 238.324H687.182C687.831 240.639 689.92 242.333 692.433 242.333C695.453 242.333 697.909 239.877 697.909 236.856C697.909 233.836 695.425 231.38 692.404 231.38Z" fill="url(#paint2_linear_198_244)"/>
</g>
<defs>
<linearGradient id="paint0_linear_198_244" x1="697.804" y1="38.6153" x2="-107.4" y2="38.6147" gradientUnits="userSpaceOnUse">
<stop stop-color="#FF891B"/>
<stop offset="1" stop-color="#DD7616"/>
</linearGradient>
<linearGradient id="paint1_linear_198_244" x1="698.046" y1="130.053" x2="-121.845" y2="130.052" gradientUnits="userSpaceOnUse">
<stop stop-color="#FF891B"/>
<stop offset="1" stop-color="#DD7616"/>
</linearGradient>
<linearGradient id="paint2_linear_198_244" x1="697.909" y1="269.701" x2="-196.091" y2="269.7" gradientUnits="userSpaceOnUse">
<stop stop-color="#FF891B"/>
<stop offset="1" stop-color="#DD7616"/>
</linearGradient>
</defs>
</svg>
