<svg width="68" height="68" viewBox="0 0 68 68" fill="none" xmlns="http://www.w3.org/2000/svg">
<g clip-path="url(#clip0_198_370)">
<rect opacity="0.75" x="4.25" y="4.25" width="48.45" height="16.15" rx="1" fill="#5CD9B5"/>
<path d="M11.9531 9.96094C11.9531 11.0608 11.0613 11.9531 9.96094 11.9531C8.86108 11.9531 7.96875 11.0608 7.96875 9.96094C7.96875 8.86057 8.86108 7.96875 9.96094 7.96875C11.0613 7.96875 11.9531 8.86057 11.9531 9.96094Z" fill="#464D53"/>
<path d="M19.9219 9.96094C19.9219 11.0608 19.0301 11.9531 17.9297 11.9531C16.8298 11.9531 15.9375 11.0608 15.9375 9.96094C15.9375 8.86057 16.8298 7.96875 17.9297 7.96875C19.0301 7.96875 19.9219 8.86057 19.9219 9.96094Z" fill="#464D53"/>
<path d="M27.8906 9.96094C27.8906 11.0608 26.9988 11.9531 25.8984 11.9531C24.7986 11.9531 23.9062 11.0608 23.9062 9.96094C23.9062 8.86057 24.7986 7.96875 25.8984 7.96875C26.9988 7.96875 27.8906 8.86057 27.8906 9.96094Z" fill="#464D53"/>
<path d="M11.9531 25.8984C11.9531 26.9983 11.0613 27.8906 9.96094 27.8906C8.86108 27.8906 7.96875 26.9983 7.96875 25.8984C7.96875 24.7981 8.86108 23.9062 9.96094 23.9062C11.0613 23.9062 11.9531 24.7981 11.9531 25.8984Z" fill="#464D53"/>
<path d="M19.9219 25.8984C19.9219 26.9983 19.0301 27.8906 17.9297 27.8906C16.8298 27.8906 15.9375 26.9983 15.9375 25.8984C15.9375 24.7981 16.8298 23.9062 17.9297 23.9062C19.0301 23.9062 19.9219 24.7981 19.9219 25.8984Z" fill="#464D53"/>
<path d="M27.8906 25.8984C27.8906 26.9983 26.9988 27.8906 25.8984 27.8906C24.7986 27.8906 23.9062 26.9983 23.9062 25.8984C23.9062 24.7981 24.7986 23.9062 25.8984 23.9062C26.9988 23.9062 27.8906 24.7981 27.8906 25.8984Z" fill="#464D53"/>
<path d="M11.9531 41.8359C11.9531 42.9358 11.0613 43.8281 9.96094 43.8281C8.86108 43.8281 7.96875 42.9358 7.96875 41.8359C7.96875 40.7356 8.86108 39.8438 9.96094 39.8438C11.0613 39.8438 11.9531 40.7356 11.9531 41.8359Z" fill="#464D53"/>
<path d="M19.9219 41.8359C19.9219 42.9358 19.0301 43.8281 17.9297 43.8281C16.8298 43.8281 15.9375 42.9358 15.9375 41.8359C15.9375 40.7356 16.8298 39.8438 17.9297 39.8438C19.0301 39.8438 19.9219 40.7356 19.9219 41.8359Z" fill="#464D53"/>
<path d="M27.8906 41.8359C27.8906 42.9358 26.9988 43.8281 25.8984 43.8281C24.7986 43.8281 23.9062 42.9358 23.9062 41.8359C23.9062 40.7356 24.7986 39.8438 25.8984 39.8438C26.9988 39.8438 27.8906 40.7356 27.8906 41.8359Z" fill="#464D53"/>
<path opacity="0.75" fill-rule="evenodd" clip-rule="evenodd" d="M45.4744 55.8169L55.4294 45.7731C56.1191 45.9351 56.8372 46.0206 57.574 46.0206C62.7798 46.0206 67 41.7627 67 36.5103C67 31.2579 62.7798 27 57.574 27C52.3681 27 48.148 31.2579 48.148 36.5103C48.148 37.4369 48.2796 38.3341 48.5256 39.1829L38.5706 49.2269C37.8809 49.0649 37.1628 48.9794 36.426 48.9794C31.2202 48.9794 27 53.2373 27 58.4897C27 63.7421 31.2202 68 36.426 68C41.6319 68 45.852 63.7421 45.852 58.4897C45.852 57.563 45.7204 56.6658 45.4744 55.8169Z" fill="#5CD9B5" stroke="white" stroke-width="2" stroke-linecap="round" stroke-linejoin="round"/>
<rect x="1.70001" y="1.69995" width="48.45" height="16.15" stroke="#464D53" stroke-width="2.5" stroke-linecap="round" stroke-linejoin="round"/>
<path d="M50.15 27.2V17.85H1.70001V34H28.475" stroke="#464D53" stroke-width="2.5" stroke-linecap="round" stroke-linejoin="round"/>
<path d="M28.9 34H1.70001V50.15H27.625" stroke="#464D53" stroke-width="2.5" stroke-linecap="round" stroke-linejoin="round"/>
<path d="M33.9046 27.886L42.2337 36.2151C43.7275 37.7089 43.7275 40.1307 42.2337 41.6245V41.6245C40.74 43.1182 38.3181 43.1182 36.8244 41.6245L28.4952 33.2954L33.9046 27.886Z" stroke="#464D53" stroke-width="2.5" stroke-linecap="round" stroke-linejoin="round"/>
<path d="M57.7045 52.536L62.1859 60.1432C62.4172 60.536 62.3537 61.0355 62.0314 61.3579L61.117 62.2722C60.7947 62.5945 60.2951 62.6581 59.9023 62.4267L52.2952 57.9454L57.7045 52.536Z" stroke="#464D53" stroke-width="2.5" stroke-linecap="round" stroke-linejoin="round"/>
<path d="M36.5501 48.0249L47.6001 36.9749M53.1251 42.0749L42.0749 53.1249" stroke="#464D53" stroke-width="2.5" stroke-linecap="round" stroke-linejoin="round"/>
<path d="M54.825 54.825L47.6 47.6" stroke="#464D53" stroke-width="2.5" stroke-linecap="round" stroke-linejoin="round"/>
<path d="M61.2604 28.05L55.25 34.0604" stroke="#464D53" stroke-width="2.5" stroke-linecap="round" stroke-linejoin="round"/>
<path d="M33.6354 56.0396L27.625 61.625" stroke="#464D53" stroke-width="2.5" stroke-linecap="round" stroke-linejoin="round"/>
<path d="M47.5998 36.975C47.2538 36.0491 47.0646 35.0466 47.0646 34C47.0646 29.3056 50.8702 25.5 55.5646 25.5C60.2591 25.5 64.0646 29.3056 64.0646 34C64.0646 38.6944 60.2591 42.5 55.5646 42.5C54.6762 42.5 53.8196 42.3637 53.0146 42.1109" stroke="#464D53" stroke-width="2.5" stroke-linecap="round" stroke-linejoin="round"/>
<path d="M42.0751 53.125C42.4211 54.0509 42.6102 55.0534 42.6102 56.1C42.6102 60.7944 38.8047 64.6 34.1102 64.6C29.4158 64.6 25.6102 60.7944 25.6102 56.1C25.6102 51.4056 29.4158 47.6 34.1102 47.6C34.9987 47.6 35.8552 47.7363 36.6602 47.9891" stroke="#464D53" stroke-width="2.5" stroke-linecap="round" stroke-linejoin="round"/>
</g>
<defs>
<clipPath id="clip0_198_370">
<rect width="68" height="68" fill="white"/>
</clipPath>
</defs>
</svg>
