<svg width="68" height="68" viewBox="0 0 68 68" fill="none" xmlns="http://www.w3.org/2000/svg">
<path opacity="0.75" d="M25.5 18.468C25.5 18.0892 25.714 17.743 26.0528 17.5736L33.5528 13.8236C33.8343 13.6828 34.1657 13.6828 34.4472 13.8236L41.9472 17.5736C42.286 17.743 42.5 18.0892 42.5 18.468V24.7347C42.5 27.3452 41.2263 29.7916 39.0877 31.2886L34.5735 34.4485C34.2291 34.6896 33.7709 34.6896 33.4265 34.4485L28.9123 31.2886C26.7737 29.7916 25.5 27.3452 25.5 24.7347V18.468Z" fill="#6ED5EB"/>
<path opacity="0.75" d="M3.39999 50.15H39.8C40.3523 50.15 40.8 50.5977 40.8 51.15V53.7597C40.8 58.1758 43.6967 62.069 47.9265 63.338L49.3 63.75H13.4C7.87714 63.75 3.39999 59.2729 3.39999 53.75V50.15Z" fill="#6ED5EB"/>
<path opacity="0.75" d="M68 21.1C68 21.6523 67.5523 22.1 67 22.1H56.25C55.6977 22.1 55.25 21.6523 55.25 21.1V12.325C55.25 8.80416 58.1042 5.94998 61.625 5.94998C65.1458 5.94998 68 8.80416 68 12.325V21.1Z" fill="#6ED5EB"/>
<path d="M59.9792 3.30371H16.858C13.042 3.30371 9.93727 6.37937 9.93727 10.1476L9.65391 48.8665H1.07272C0.464575 48.8665 0 49.4042 0 50.0123V55.3409C0 60.3292 3.9919 64.4088 8.80971 64.6324V64.6964H44.988V64.6244C45.2633 64.6357 45.43 64.6964 45.6193 64.6964H45.6456C50.7839 64.6663 54.9258 60.4782 54.899 55.3399V21.4738H66.0773C66.6854 21.4738 67.15 20.9231 67.15 20.3155V10.5385C67.157 6.56488 63.9528 3.33221 59.9792 3.30371ZM9.29149 62.494H9.28397C5.36681 62.494 2.20243 59.2565 2.20243 55.3399V51.0689H36.316V55.3216C36.3074 57.8004 37.2865 60.1803 39.0368 61.9353C39.2228 62.1224 39.4174 62.2187 39.6164 62.494H9.29149ZM52.6965 55.3388C52.6965 59.2565 49.5628 62.494 45.644 62.494H45.6215C41.6833 62.4655 38.5093 59.2603 38.5184 55.3221V50.0123C38.5216 49.3956 38.0339 48.888 37.4172 48.8665H11.8563L12.1397 10.1551C12.1397 7.59404 14.2561 5.50614 16.858 5.50614H54.7801C53.5251 6.88266 52.6965 8.62428 52.6965 10.5681V55.3388ZM64.9475 10.5579V19.2713H54.899V10.5659C54.899 7.80966 57.1917 5.50614 59.9469 5.50614H59.9776C62.7397 5.53356 64.9604 7.78707 64.9475 10.5498V10.5579Z" fill="#464D53"/>
<path d="M25.8585 30.4093L31.5361 34.291C31.9066 34.5464 32.3964 34.5464 32.7669 34.291L38.4273 30.4104C40.3937 29.0688 41.846 26.2642 41.846 23.8859V16.0322C41.8578 15.6171 41.6288 15.2321 41.2588 15.0434L32.6142 10.7913C32.3109 10.6407 31.9549 10.6407 31.6517 10.7913L23.0232 15.0316C22.6532 15.2203 22.4247 15.6053 22.4371 16.0204V23.8859C22.4371 26.2642 23.8926 29.0688 25.8585 30.4093ZM24.6395 16.7076L32.1415 13.0061L39.6436 16.7178V23.8859C39.6436 25.5447 38.5563 27.6547 37.1846 28.5898L32.1286 32.0477L27.0925 28.5903C25.7208 27.6542 24.6395 25.5447 24.6395 23.8859V16.7076Z" fill="#464D53"/>
<path d="M30.2791 25.5485C30.4845 25.7582 30.7652 25.877 31.0588 25.8787H31.0614C31.354 25.8776 31.6341 25.7604 31.84 25.5528L36.2207 21.1705C36.6514 20.7404 36.6514 20.0424 36.2212 19.6123C35.7916 19.1816 35.0937 19.1816 34.6635 19.6117L31.0652 23.2095L29.6269 21.7572C29.1983 21.3249 28.5009 21.3216 28.0686 21.7502C27.6363 22.1787 27.6336 22.8761 28.0616 23.3084L30.2791 25.5485Z" fill="#464D53"/>
<path d="M45.8381 37.4413H19.409C18.8009 37.4413 18.3078 37.9344 18.3078 38.5425C18.3078 39.1506 18.8009 39.6437 19.409 39.6437H45.8381C46.4463 39.6437 46.9394 39.1506 46.9394 38.5425C46.9394 37.9344 46.4463 37.4413 45.8381 37.4413Z" fill="#464D53"/>
<path d="M45.8381 42.5344H19.409C18.8009 42.5344 18.3078 43.0275 18.3078 43.6356C18.3078 44.2438 18.8009 44.7369 19.409 44.7369H45.8381C46.4463 44.7369 46.9394 44.2438 46.9394 43.6356C46.9394 43.0275 46.4463 42.5344 45.8381 42.5344Z" fill="#464D53"/>
</svg>
