<svg width="68" height="68" viewBox="0 0 68 68" fill="none" xmlns="http://www.w3.org/2000/svg">
<g clip-path="url(#clip0_198_336)">
<path opacity="0.6" fill-rule="evenodd" clip-rule="evenodd" d="M43.5516 64.8173V43.7115C43.5516 42.0422 42.1994 40.6886 40.5302 40.6887H6.49607C4.82688 40.6887 3.47472 42.0422 3.47472 43.7115V64.8173C3.47472 66.4865 4.82675 67.8401 6.49607 67.8401H40.5302C42.1994 67.8401 43.5516 66.4866 43.5516 64.8173ZM26.7453 54.2641C26.7453 56.0489 25.2985 57.4957 23.5137 57.4957C21.729 57.4957 20.2821 56.0489 20.2821 54.2641C20.2821 52.4794 21.729 51.0325 23.5137 51.0325C25.2985 51.0325 26.7453 52.4794 26.7453 54.2641Z" fill="#FF5555"/>
<path opacity="0.6" d="M55.3985 1.92603C48.4803 1.92603 42.8719 7.1433 42.8719 13.5791C42.8719 17.2572 44.7042 20.5365 47.5652 22.6723C47.1842 24.2355 46.4231 26.2664 44.9115 27.7782C44.9115 27.7782 50.409 27.4636 52.4001 24.8954C53.3609 25.1151 54.3649 25.2324 55.3986 25.2324C62.3168 25.2324 67.9252 20.0151 67.9252 13.5791C67.9252 7.14317 62.3168 1.92603 55.3985 1.92603Z" fill="#FF5555"/>
<path d="M9.26798 27.4142C9.72353 28.8643 10.442 30.1989 11.3671 31.3623C9.48606 32.6894 7.88235 34.402 6.68943 36.372C6.40043 36.8491 6.55303 37.4701 7.03022 37.759C7.19371 37.8579 7.37407 37.9051 7.55231 37.9051C7.8939 37.9051 8.22726 37.7316 8.41718 37.4182C9.51554 35.6044 11.0098 34.0384 12.7657 32.8505C14.9389 34.8096 17.8142 36.004 20.9635 36.004C24.113 36.004 26.9885 34.8094 29.1617 32.85C29.9384 33.375 30.6666 33.974 31.3319 34.6392C32.1702 35.4775 32.9024 36.4121 33.5081 37.4166C33.6977 37.7311 34.0317 37.9051 34.3739 37.9051C34.5514 37.9051 34.7313 37.8582 34.8946 37.7599C35.3722 37.4719 35.5258 36.8512 35.2379 36.3736C34.5478 35.229 33.7141 34.165 32.7601 33.211C32.0807 32.5316 31.3433 31.9132 30.5604 31.3617C31.4851 30.1984 32.2035 28.864 32.6589 27.4142C33.9623 27.3826 35.1567 26.9042 36.0935 26.1246V27.2222C36.0935 28.4008 35.1346 29.3598 33.9558 29.3598C33.398 29.3598 32.9459 29.812 32.9459 30.3697C32.9459 30.9274 33.398 31.3796 33.9558 31.3796C36.2482 31.3796 38.1133 29.5145 38.1133 27.2222V17.1499C38.113 7.69343 30.4196 0 20.9632 0C11.5068 0 3.81337 7.69343 3.81337 17.1498V21.8261C3.81337 23.3197 4.39496 24.7238 5.45095 25.7798C6.47453 26.8036 7.82577 27.3798 9.26798 27.4142ZM6.87895 24.3518C6.20453 23.6774 5.83292 22.7804 5.83292 21.8264C5.83292 20.0839 7.0876 18.6297 8.74085 18.3178C8.71907 18.6159 8.70764 18.9167 8.70764 19.2202V23.7483C8.70764 24.2905 8.7435 24.8245 8.81204 25.3482C8.08343 25.2272 7.41179 24.8844 6.87895 24.3518ZM20.9635 8.98423C25.6778 8.98423 29.6556 12.1887 30.839 16.5333C29.7526 17.1186 28.5388 17.4265 27.2893 17.4265C24.185 17.4265 21.3634 15.4745 20.2682 12.5695C20.1198 12.1762 19.7436 11.9159 19.3232 11.9159C18.9029 11.9159 18.5265 12.1764 18.3783 12.5695C17.2831 15.4746 14.4615 17.4265 11.3571 17.4265C11.2013 17.4265 11.0461 17.4198 10.8912 17.4103C11.7484 12.6269 15.9372 8.98423 20.9635 8.98423ZM10.7275 23.7483V19.423C10.9368 19.4368 11.1465 19.4463 11.3569 19.4463C14.5924 19.4463 17.5862 17.7754 19.323 15.136C21.0597 17.7755 24.0535 19.4463 27.289 19.4463C28.6427 19.4463 29.9635 19.161 31.1798 18.6154C31.1915 18.8157 31.1992 19.0169 31.1992 19.22V23.7481C31.1992 29.3922 26.6073 33.9839 20.9633 33.9839C15.3193 33.9839 10.7275 29.3923 10.7275 23.7483ZM33.1146 25.3475C33.1831 24.8239 33.219 24.2902 33.219 23.7482V19.2201C33.219 18.9164 33.2074 18.6151 33.1857 18.3168C33.8868 18.4478 34.5321 18.7855 35.0474 19.3008C35.7219 19.9753 36.0935 20.8721 36.0935 21.8263C36.0932 23.5936 34.8027 25.0642 33.1146 25.3475ZM20.9632 2.01981C29.3059 2.01981 36.0933 8.80719 36.0933 17.1499V17.5247C35.176 16.7604 34.0504 16.3155 32.8532 16.2459C31.5207 10.9208 26.6956 6.96469 20.9633 6.96469C15.231 6.96469 10.4061 10.9208 9.07341 16.2459C7.84556 16.3179 6.72289 16.7876 5.83292 17.5283V17.1501C5.83305 8.8072 12.6204 2.01981 20.9632 2.01981Z" fill="#464D53"/>
<path d="M25.5002 21.5601C24.6741 21.5601 23.8975 21.8817 23.3134 22.4658C22.919 22.8603 22.9191 23.4996 23.3134 23.8941C23.708 24.2886 24.3471 24.2884 24.7417 23.8941C24.9442 23.6914 25.2137 23.58 25.5002 23.58C25.7867 23.58 26.0561 23.6916 26.2588 23.8941C26.4559 24.0912 26.7145 24.1899 26.9728 24.1899C27.2311 24.1899 27.4897 24.0913 27.6868 23.8941C28.0813 23.4996 28.0813 22.8603 27.6868 22.466C27.103 21.8819 26.3263 21.5601 25.5002 21.5601Z" fill="#464D53"/>
<path d="M18.613 23.8943C19.0074 23.4999 19.0074 22.8605 18.613 22.4661C18.0289 21.882 17.2523 21.5603 16.4262 21.5603C15.6001 21.5603 14.8236 21.882 14.2395 22.4661C13.845 22.8605 13.8451 23.4999 14.2395 23.8943C14.634 24.2888 15.2733 24.2887 15.6677 23.8943C15.8703 23.6917 16.1397 23.5802 16.4262 23.5802C16.7127 23.5802 16.982 23.6918 17.1847 23.8943C17.3819 24.0914 17.6404 24.1901 17.899 24.1901C18.1572 24.19 18.4157 24.0914 18.613 23.8943Z" fill="#464D53"/>
<path d="M22.6769 27.8124C21.732 28.7571 20.1945 28.7571 19.2498 27.8124C18.8554 27.4179 18.216 27.4179 17.8217 27.8124C17.4273 28.2068 17.4273 28.8462 17.8217 29.2405C18.6879 30.1067 19.8254 30.5398 20.9634 30.5398C22.1011 30.5398 23.239 30.1066 24.1051 29.2405C24.4995 28.846 24.4995 28.2068 24.1051 27.8124C23.7109 27.4178 23.0714 27.4179 22.6769 27.8124Z" fill="#464D53"/>
<path d="M38.0436 38.4037H4.00947C1.78659 38.4037 -0.0217895 40.2127 -0.0217895 42.4364V63.5422C-0.0219224 65.766 1.78645 67.575 4.00947 67.575H38.0436C40.2665 67.575 42.0749 65.766 42.0749 63.5423V50.1338C42.0749 49.5761 41.6228 49.1239 41.065 49.1239C40.5071 49.1239 40.055 49.5761 40.055 50.1338V63.5423C40.055 64.6522 39.1527 65.5552 38.0436 65.5552H4.00947C2.90035 65.5552 1.99802 64.6522 1.99802 63.5423V42.4365C1.99802 41.3266 2.90035 40.4236 4.00947 40.4236H38.0436C39.1526 40.4236 40.055 41.3266 40.055 42.4365V46.7673C40.055 47.325 40.5071 47.7772 41.065 47.7772C41.6228 47.7772 42.0749 47.325 42.0749 46.7673V42.4365C42.0747 40.2127 40.2663 38.4037 38.0436 38.4037Z" fill="#464D53"/>
<path d="M16.7215 53.4145C16.7215 55.7533 18.6242 57.656 20.963 57.656C23.3017 57.656 25.2045 55.7533 25.2045 53.4145C25.2045 51.0756 23.3018 49.173 20.963 49.173C18.6242 49.173 16.7215 51.0758 16.7215 53.4145ZM23.1847 53.4145C23.1847 54.6395 22.1881 55.6362 20.963 55.6362C19.7379 55.6362 18.7413 54.6395 18.7413 53.4145C18.7413 52.1894 19.7379 51.1928 20.963 51.1928C22.1879 51.1928 23.1847 52.1894 23.1847 53.4145Z" fill="#464D53"/>
<path d="M52.8489 0.0661621C49.789 0.0661621 46.9021 0.997709 44.5 2.76026C44.0503 3.09017 43.9532 3.72222 44.2833 4.17193C44.6133 4.6215 45.2454 4.71872 45.6948 4.38868C47.748 2.88219 50.2219 2.08584 52.8489 2.08584C59.1992 2.08584 64.3656 6.86032 64.3656 12.7292C64.3656 18.598 59.1992 23.3725 52.8489 23.3725C51.913 23.3725 50.9798 23.2677 50.0755 23.0611C49.6922 22.9737 49.2931 23.1163 49.0523 23.4268C48.1684 24.5669 46.2634 25.2295 44.6279 25.5832C45.3313 24.3504 45.7503 23.0737 45.9968 22.0616C46.0928 21.6681 45.9444 21.2555 45.6198 21.0131C42.8951 18.9792 41.3323 15.9598 41.3323 12.7292C41.3323 10.4366 42.1091 8.25272 43.5786 6.41407C43.9268 5.97831 43.8559 5.34294 43.4201 4.9947C42.9842 4.64633 42.3489 4.71726 42.0006 5.15315C40.2421 7.35372 39.3125 9.97344 39.3125 12.7293C39.3125 16.3812 40.964 19.798 43.8676 22.2039C43.492 23.4781 42.8229 25.0392 41.6477 26.2143C41.3516 26.5105 41.269 26.9591 41.4404 27.3413C41.6038 27.706 41.9656 27.9383 42.3617 27.9382C42.381 27.9382 42.4004 27.9377 42.4198 27.9366C42.6486 27.9236 47.743 27.6038 50.2159 25.1518C51.081 25.3114 51.9641 25.3923 52.8492 25.3923C60.3132 25.3923 66.3855 19.7117 66.3855 12.7292C66.3854 5.74682 60.3129 0.0661621 52.8489 0.0661621Z" fill="#464D53"/>
<path d="M58.8766 14.6619C59.5632 14.5186 60.104 13.9674 60.2214 13.2739C60.3447 12.5456 59.965 11.8044 59.3075 11.4733C58.6943 11.1645 57.9314 11.2635 57.416 11.7168C56.8673 12.1995 56.6916 13.0086 56.9846 13.6766C57.3014 14.3981 58.1026 14.8199 58.8766 14.6619Z" fill="#464D53"/>
<path d="M53.7766 14.6619C54.4632 14.5186 55.004 13.9674 55.1214 13.2739C55.2447 12.5456 54.865 11.8044 54.2075 11.4733C53.5943 11.1645 52.8314 11.2635 52.316 11.7168C51.7673 12.1995 51.5916 13.0086 51.8846 13.6766C52.2014 14.3981 53.0026 14.8199 53.7766 14.6619Z" fill="#464D53"/>
<path d="M48.6766 14.6619C49.3632 14.5186 49.9041 13.9674 50.0214 13.2739C50.1447 12.5456 49.765 11.8044 49.1075 11.4733C48.4943 11.1645 47.7314 11.2635 47.216 11.7168C46.6673 12.1995 46.4916 13.0086 46.7846 13.6766C47.1014 14.3981 47.9026 14.8199 48.6766 14.6619Z" fill="#464D53"/>
</g>
<defs>
<clipPath id="clip0_198_336">
<rect width="68" height="68" fill="white"/>
</clipPath>
</defs>
</svg>
