<svg width="33" height="42" viewBox="0 0 33 42" fill="none" xmlns="http://www.w3.org/2000/svg">
<path fill-rule="evenodd" clip-rule="evenodd" d="M7.52269 0.400024C12.2442 0.400024 18.9153 5.00447 24.7731 11.763C24.822 11.68 24.8708 11.5956 24.9197 11.5097C25.819 9.92891 27.2012 7.37335 27.1138 5.37039L27.8857 6.46817L28.1301 3.86076C28.6605 3.86076 28.6812 4.66669 28.6812 5.14521C28.6812 5.45188 28.6412 5.7778 28.6412 6.08447C28.6412 6.18076 28.5597 6.87113 28.5597 6.87113L30.1508 4.8578C30.4575 5.14521 30.2946 6.04743 30.1731 6.42965C30.0916 6.66076 29.9479 6.89187 29.8249 7.14076C29.7642 7.25484 29.4175 7.61928 29.4175 7.6578L31.4383 6.21928C31.5005 6.7378 31.4783 7.1778 31.3168 7.6578C31.1938 8.02224 30.0916 8.82669 29.7642 8.82669L31.9479 7.98373C32.0294 8.40447 31.7657 8.9615 31.3968 9.21039C31.1716 9.36447 30.9271 9.55558 30.662 9.67113C30.4768 9.74817 29.9864 9.93928 29.8649 10.0548C30.4931 10.0282 31.2101 10.1215 31.3405 10.5097C31.5064 11.0119 30.5286 12.0756 29.9168 13.0059C29.2753 13.7941 28.5301 14.6548 27.7346 15.4652C29.2783 17.5541 30.7212 19.7808 31.9997 22.0874C32.0279 22.1393 32.0546 22.1911 32.0842 22.2445C30.8797 20.5585 29.5064 18.8682 27.9775 17.2222C27.6516 16.8711 27.3227 16.5259 26.9923 16.1896C26.7553 16.4119 26.5168 16.6267 26.2768 16.8311C24.7686 18.1097 23.5879 19.4637 23.219 20.0593C22.899 20.5778 22.4205 22.0667 23.0116 22.4237C24.9997 23.0859 29.2768 23.8696 28.6101 24.8504C28.3331 25.2771 26.8575 25.7378 24.7983 25.4696C24.4679 25.4267 22.2664 24.9319 21.5138 24.6948C21.4042 24.6593 21.3286 24.6252 21.2812 24.6089C21.2131 24.5867 21.1049 24.5645 20.9583 24.5422C19.9745 24.3896 17.4086 24.1778 15.582 23.1837C14.816 22.8756 14.0279 22.8771 13.4708 22.8415C13.0931 22.8178 12.8901 22.7837 12.7227 22.7837C12.5553 22.7837 12.3642 22.7615 12.099 22.7541C11.4975 22.7363 10.6131 22.6845 9.5938 22.5971C9.97898 23.3971 10.3997 24.2134 10.856 25.0415C15.5182 33.4608 22.6412 40.643 28.416 43.2163C21.7212 41.0059 12.9005 32.4993 7.21157 22.3526C6.02194 22.2104 4.80269 22.0296 3.72713 21.8148C1.89305 21.4474 0.552309 20.7245 0.144902 20.1645C-0.0684319 19.8711 -0.0506544 19.5526 0.227864 19.2222C0.741939 19.2415 1.90046 20.4208 3.60416 20.8622C4.31528 21.0474 5.41454 21.1911 6.63824 21.3022C0.464905 9.7215 0.807127 0.400024 7.52269 0.400024ZM23.9049 13.1037C19.4368 8.68891 14.7494 5.85187 11.2649 5.85187C5.89009 5.85187 5.12861 12.6015 9.07972 21.4785C10.5864 21.563 12.0368 21.6089 13.0101 21.6252C13.6057 21.6356 14.0516 21.6459 14.1138 21.4934C14.2457 21.1704 12.1375 20.8696 11.9419 20.7467C12.016 20.3348 12.6945 20.1393 13.456 19.9452C13.499 19.9348 13.539 19.9259 13.5819 19.9171C13.6945 19.8948 13.7968 19.8889 13.9123 19.8934C15.8131 19.9822 17.4901 19.7497 18.4723 18.8267C18.9642 18.3645 20.6308 16.9941 21.1582 16.4296C22.0486 15.48 23.0279 14.3497 23.9049 13.1037Z" fill="#FF891B"/>
</svg>
