<svg width="80" height="80" viewBox="0 0 80 80" fill="none" xmlns="http://www.w3.org/2000/svg">
<g clip-path="url(#clip0_198_473)">
<path opacity="0.6" d="M1.05911 56.3503C1.05911 55.5801 1.10232 54.8201 1.18196 54.0715C2.31945 64.7469 11.352 73.0626 22.329 73.0626C33.306 73.0626 42.3385 64.7465 43.476 54.0715C43.5561 54.8205 43.5988 55.5806 43.5988 56.3503C43.5988 68.0975 34.0758 77.6206 22.3286 77.6206C17.8968 77.6206 13.7828 76.2641 10.3759 73.9451L1.5141 77.108L4.535 68C5.45909 69.4075 3.31306 66.8512 4.535 68C2.33825 64.6542 1.05911 60.6525 1.05911 56.3503Z" fill="#6ED5EB"/>
<path opacity="0.6" d="M78.9409 24.3296C78.9409 23.5594 78.8977 22.7994 78.818 22.0508C77.6805 32.7262 68.648 41.0419 57.671 41.0419C46.694 41.0419 37.6615 32.7257 36.524 22.0508C36.4444 22.7998 36.4007 23.5598 36.4007 24.3296C36.4007 36.0768 45.9238 45.5998 57.671 45.5998C62.1027 45.5998 66.2167 44.2433 69.6233 41.9243L78.485 45.0872L75.5 35.925C74.5682 37.3535 76.7378 34.7614 75.5 35.925C77.6754 32.5901 78.9409 28.6083 78.9409 24.3296Z" fill="#6ED5EB"/>
<path d="M22.3294 34.021C10.017 34.021 0 44.038 0 56.3504C0 60.6372 1.2112 64.7809 3.50819 68.3696L0.517267 76.7518C0.380007 77.1373 0.476175 77.5673 0.765947 77.8562C1.0553 78.146 1.48529 78.2426 1.87081 78.1049L10.234 75.1212C13.8413 77.4508 18.0108 78.6794 22.3294 78.6794C34.6418 78.6794 44.6588 68.6623 44.6588 56.35C44.6588 44.0376 34.6422 34.021 22.3294 34.021ZM22.3294 76.5611C18.2565 76.5611 14.3293 75.3538 10.9732 73.0699C10.7953 72.9487 10.5873 72.8865 10.3776 72.8865C10.2577 72.8865 10.1374 72.9068 10.0217 72.9483L3.26333 75.3597L5.68021 68.5848C5.79375 68.2679 5.74884 67.9159 5.56074 67.6367C3.30866 64.2975 2.11822 60.3949 2.11822 56.3504C2.11822 45.206 11.1846 36.1392 22.3294 36.1392C33.4742 36.1392 42.5406 45.206 42.5406 56.3504C42.5406 67.4948 33.4742 76.5611 22.3294 76.5611Z" fill="#464D53"/>
<path d="M76.4918 36.3486C78.7888 32.7599 80 28.6162 80 24.3294C80 12.017 69.9829 2 57.6706 2C45.3582 2 35.3412 12.017 35.3412 24.3294C35.3412 36.6418 45.3582 46.6584 57.6706 46.6584C61.9884 46.6584 66.1583 45.4298 69.7656 43.1002L78.1292 46.0843C78.5138 46.222 78.9447 46.1254 79.2336 45.8357C79.5234 45.5463 79.6196 45.1163 79.4823 44.7308L76.4918 36.3486ZM69.9783 40.9273C69.661 40.8134 69.3064 40.8591 69.0268 41.0493C65.6702 43.3336 61.7439 44.5406 57.6706 44.5406C46.5258 44.5406 37.4594 35.4742 37.4594 24.3298C37.4594 13.1855 46.5258 4.11864 57.6706 4.11864C68.8154 4.11864 77.8818 13.1855 77.8818 24.3298C77.8818 28.3739 76.6917 32.2765 74.4392 35.6161C74.2511 35.8953 74.2062 36.2473 74.3198 36.5642L76.7367 43.3391L69.9783 40.9273Z" fill="#464D53"/>
<path d="M54.6343 30.5895C54.3535 30.5895 54.084 30.4781 53.8853 30.2794L46.8414 23.2351C46.4275 22.8216 46.4275 22.151 46.8414 21.7375C47.2553 21.3236 47.9255 21.3236 48.339 21.7375L54.6339 28.0328L66.1024 16.5648C66.5163 16.1509 67.1865 16.1509 67.5999 16.5648C68.0138 16.9783 68.0138 17.6489 67.5999 18.0624L55.3825 30.2794C55.1846 30.4777 54.9152 30.5895 54.6343 30.5895Z" fill="#6ED5EB"/>
<path d="M23.613 50.3831H12.7174C12.1323 50.3831 11.6582 49.9091 11.6582 49.324C11.6582 48.7389 12.1323 48.2649 12.7174 48.2649H23.6135C24.1985 48.2649 24.6726 48.7389 24.6726 49.324C24.6721 49.9091 24.1981 50.3831 23.613 50.3831Z" fill="#6ED5EB"/>
<path d="M31.1564 57.2066H12.7174C12.1323 57.2066 11.6582 56.7325 11.6582 56.1475C11.6582 55.5624 12.1323 55.0884 12.7174 55.0884H31.1564C31.7415 55.0884 32.2155 55.5624 32.2155 56.1475C32.2155 56.7321 31.7415 57.2066 31.1564 57.2066Z" fill="#6ED5EB"/>
<path d="M31.1564 64.0294H12.7174C12.1323 64.0294 11.6582 63.5553 11.6582 62.9702C11.6582 62.3852 12.1323 61.9111 12.7174 61.9111H31.1564C31.7415 61.9111 32.2155 62.3852 32.2155 62.9702C32.2155 63.5553 31.7415 64.0294 31.1564 64.0294Z" fill="#6ED5EB"/>
</g>
<defs>
<clipPath id="clip0_198_473">
<rect width="80" height="80" fill="white"/>
</clipPath>
</defs>
</svg>
