<svg width="80" height="80" viewBox="0 0 80 80" fill="none" xmlns="http://www.w3.org/2000/svg">
<path d="M50.1432 51.7893C50.2875 51.5543 50.4319 51.3237 50.5763 51.0843C57.0694 40.3343 60.3369 30.9305 60.29 23.1374C60.2612 17.7758 58.1113 12.6435 54.3101 8.86203C50.5089 5.08059 45.3655 2.95745 40.0038 2.95654C34.642 2.95563 29.4979 5.07703 25.6954 8.85718C21.893 12.6373 19.7413 17.7689 19.7107 23.1305C19.6632 30.9305 22.9313 40.3356 29.4244 51.0843C29.5688 51.3237 29.7132 51.5543 29.8575 51.7893C16.1875 53.4787 7.12503 58.3643 7.12503 64.1649C7.12503 71.4474 21.5625 77.1518 40 77.1518C58.4375 77.1518 72.875 71.4474 72.875 64.1649C72.875 58.3643 63.8125 53.4787 50.1432 51.7893ZM21.8982 23.1374C21.8846 20.7513 22.3429 18.386 23.2468 16.1776C24.1506 13.9692 25.4822 11.9613 27.1649 10.2694C28.8475 8.57743 30.8481 7.23486 33.0515 6.31889C35.2549 5.40291 37.6176 4.9316 40.0038 4.93205C42.39 4.9325 44.7526 5.40472 46.9556 6.32153C49.1587 7.23834 51.1587 8.58166 52.8407 10.2742C54.5227 11.9668 55.8535 13.9752 56.7565 16.1839C57.6596 18.3927 58.117 20.7581 58.1025 23.1443C58.1963 38.6805 43.6713 57.8424 40 62.4374C36.3288 57.8424 21.8032 38.6799 21.8982 23.1374ZM40 74.9643C21.6432 74.9643 9.31253 69.3799 9.31253 64.1649C9.31253 59.5399 18.4557 55.2368 31.1463 53.8412C33.6007 57.6735 36.2789 61.3578 39.1669 64.8749C39.2695 64.9958 39.3971 65.093 39.541 65.1596C39.6848 65.2262 39.8415 65.2607 40 65.2607C40.1586 65.2607 40.3152 65.2262 40.4591 65.1596C40.6029 65.093 40.7306 64.9958 40.8332 64.8749C43.7214 61.3578 46.3998 57.6735 48.8544 53.8412C61.5419 55.2368 70.6882 59.5374 70.6882 64.1649C70.6875 69.3799 58.3569 74.9643 40 74.9643Z" fill="#464D53"/>
<path opacity="0.6" fill-rule="evenodd" clip-rule="evenodd" d="M22.4232 18.7056C22.0668 20.1523 21.8897 21.6409 21.8982 23.1376C21.8032 38.6801 36.3288 57.8426 40 62.4376C43.6713 57.8426 58.1963 38.6807 58.1025 23.1445C58.1116 21.6458 57.9346 20.1553 57.5779 18.7067C54.9519 32.9575 43.2426 48.3792 40 52.4376C36.7578 48.3796 25.0497 32.9597 22.4232 18.7056Z" fill="#FF5555"/>
<path opacity="0.6" fill-rule="evenodd" clip-rule="evenodd" d="M10.2158 61.6474C13.3706 66.009 24.5512 69.9642 40 69.9642C55.4494 69.9642 66.6303 66.0087 69.7849 61.647C70.3753 62.4642 70.6882 63.3089 70.6882 64.1648C70.6875 69.3798 58.3569 74.9642 40 74.9642C21.6432 74.9642 9.31253 69.3798 9.31253 64.1648C9.31253 63.3092 9.62544 62.4646 10.2158 61.6474Z" fill="#FF5555"/>
<path d="M31.0575 68.6292C26.2038 68.008 22.3075 66.9142 20.09 65.5511C19.9677 65.4729 19.8309 65.4198 19.6878 65.395C19.5447 65.3702 19.3981 65.3741 19.2565 65.4066C19.1149 65.439 18.9813 65.4993 18.8633 65.584C18.7452 65.6687 18.6453 65.776 18.5692 65.8998C18.4931 66.0235 18.4425 66.1611 18.4201 66.3046C18.3978 66.4482 18.4043 66.5947 18.4393 66.7357C18.4742 66.8767 18.5368 67.0093 18.6236 67.1258C18.7103 67.2423 18.8194 67.3403 18.9444 67.4142C21.4213 68.9367 25.625 70.1392 30.78 70.7986C30.8265 70.8046 30.8732 70.8075 30.92 70.8074C31.1973 70.806 31.4636 70.6995 31.6653 70.5092C31.867 70.319 31.9888 70.0592 32.0063 69.7825C32.0238 69.5059 31.9355 69.2329 31.7594 69.0188C31.5833 68.8047 31.3324 68.6654 31.0575 68.6292Z" fill="#464D53"/>
<path d="M41.8369 69.1518C40.3125 69.1868 38.725 69.1787 37.1756 69.1218C37.032 69.1165 36.8887 69.1396 36.754 69.1897C36.6193 69.2397 36.4957 69.3159 36.3904 69.4137C36.2851 69.5115 36.2001 69.6291 36.1403 69.7598C36.0804 69.8905 36.0469 70.0316 36.0416 70.1753C36.0363 70.3189 36.0593 70.4622 36.1094 70.5969C36.1595 70.7316 36.2356 70.8552 36.3334 70.9605C36.4312 71.0658 36.5488 71.1508 36.6795 71.2106C36.8102 71.2705 36.9514 71.304 37.095 71.3093C38.0563 71.3443 39.0325 71.3625 40 71.3625C40.6363 71.3625 41.2656 71.355 41.8881 71.34C42.1781 71.3332 42.4536 71.2116 42.6539 71.0018C42.8542 70.792 42.963 70.5112 42.9563 70.2212C42.9548 70.077 42.9244 69.9345 42.867 69.8021C42.8096 69.6698 42.7263 69.5502 42.622 69.4506C42.5176 69.3509 42.3944 69.2732 42.2596 69.2219C42.1248 69.1705 41.9811 69.1467 41.8369 69.1518Z" fill="#464D53"/>
<path d="M31.9513 23.1372L31.9513 23.1382C31.9532 25.2722 32.8016 27.3182 34.3104 28.8272C35.8192 30.3363 37.865 31.1851 39.999 31.1873H40C41.5919 31.1873 43.148 30.7153 44.4715 29.831C45.7951 28.9466 46.8267 27.6897 47.436 26.219C48.0452 24.7484 48.2047 23.1302 47.8942 21.5689C47.5838 20.0076 46.8174 18.5735 45.6919 17.4478C44.5664 16.3221 43.1324 15.5554 41.5711 15.2447C40.0099 14.934 38.3916 15.0931 36.9209 15.7021C35.4502 16.3111 34.193 17.3425 33.3084 18.6659C32.4239 19.9893 31.9516 21.5453 31.9513 23.1372Z" fill="#FF5555" stroke="#464D53" stroke-width="2"/>
</svg>
