<svg width="22" height="23" viewBox="0 0 22 23" fill="none" xmlns="http://www.w3.org/2000/svg">
<path d="M15.8333 8.33337C15.8333 12.4755 12.4755 15.8334 8.33334 15.8334C4.19121 15.8334 0.833344 12.4755 0.833344 8.33337C0.833344 4.19124 4.19121 0.833374 8.33334 0.833374C12.4755 0.833374 15.8333 4.19124 15.8333 8.33337Z" stroke="#464D53"/>
<path d="M14.3333 8.33337C14.3333 5.01967 11.6471 2.33337 8.33334 2.33337" stroke="#464D53" stroke-linecap="round"/>
<path d="M13 14.3334L14.8856 16.219" stroke="#464D53"/>
<path d="M14.0607 17.3536C13.8654 17.1583 13.8654 16.8417 14.0607 16.6464L15.3131 15.394C15.5084 15.1987 15.825 15.1987 16.0202 15.394L20.2629 19.6366C20.4581 19.8319 20.4581 20.1485 20.2629 20.3437L19.0104 21.5962C18.8151 21.7915 18.4986 21.7915 18.3033 21.5962L14.0607 17.3536Z" fill="#464D53" stroke="#464D53"/>
</svg>
